<svg width="42" height="42" viewBox="0 0 42 42" fill="none" xmlns="http://www.w3.org/2000/svg">
<path d="M41.0734 20.7099C41.0734 26.1983 38.9346 31.4618 35.1274 35.3427C31.3202 39.2235 26.1566 41.4038 20.7724 41.4038C15.3882 41.4038 10.2246 39.2235 6.41743 35.3427C2.61025 31.4618 0.471405 26.1983 0.471405 20.7099C0.471405 15.2215 2.61025 9.95798 6.41743 6.07712C10.2246 2.19626 15.3882 0.0160217 20.7724 0.0160217C26.1566 0.0160217 31.3202 2.19626 35.1274 6.07712C38.9346 9.95798 41.0734 15.2215 41.0734 20.7099ZM18.873 29.0489C17.2449 28.6528 16.3136 27.6215 16.0791 25.9551C16.0423 25.7072 15.9177 25.4817 15.7287 25.3212C15.5398 25.1608 15.2997 25.0765 15.054 25.0843L13.2751 25.156C12.6319 25.1833 12.3539 25.5214 12.441 26.1702C12.977 30.1451 15.2181 32.2862 19.1644 32.5935C19.4994 32.6208 19.6703 32.8052 19.677 33.1467L19.687 35.2264C19.6897 35.4519 19.7791 35.667 19.9355 35.8246C20.0919 35.9821 20.3026 36.0691 20.5212 36.0664L21.1342 36.0562C21.7372 36.0493 22.0387 35.742 22.0387 35.1342V33.5975C22.0387 33.1877 22.2364 32.935 22.6317 32.8394C23.1945 32.7096 23.7372 32.5935 24.2598 32.4911C28.6717 31.61 30.5109 26.3136 28.3702 22.5437C27.1642 20.4333 24.6819 19.9313 22.6317 19.2142C22.4915 19.1669 22.3695 19.0751 22.2829 18.9519C22.1963 18.8288 22.1496 18.6804 22.1493 18.5278L22.1191 13.1085C22.1199 13.0183 22.1406 12.9294 22.1795 12.8483C22.2184 12.7673 22.2746 12.6962 22.344 12.6402C22.4134 12.5842 22.4942 12.5447 22.5805 12.5247C22.6668 12.5047 22.7564 12.5047 22.8427 12.5245C24.2899 12.8865 25.1609 13.8154 25.4557 15.3111C25.6098 16.076 26.0688 16.4414 26.8326 16.4072L28.1893 16.356C29.1072 16.315 29.4925 15.8301 29.3451 14.9013C28.7287 11.1108 26.5043 9.04825 22.6719 8.71359C22.3637 8.6931 22.1995 8.52579 22.1794 8.21162L22.0789 6.14221C22.0521 5.58901 21.7674 5.31241 21.2247 5.31241L20.2297 5.30216C20.1365 5.3008 20.0439 5.31837 19.9574 5.3538C19.8709 5.38923 19.7921 5.44183 19.7257 5.50856C19.6594 5.57528 19.6066 5.6548 19.5707 5.74247C19.5347 5.83015 19.5161 5.92424 19.5162 6.01928L19.5262 7.99646C19.5262 8.33795 19.3654 8.54966 19.0438 8.63162C18.5949 8.74772 18.136 8.84676 17.667 8.92872C9.66716 10.2707 10.9938 20.9148 18.9132 22.0417C19.0636 22.0613 19.2021 22.1363 19.3036 22.2528C19.405 22.3694 19.4626 22.5199 19.4659 22.6768L19.6267 28.424C19.6312 28.5192 19.6136 28.614 19.5753 28.7011C19.5369 28.7881 19.479 28.8649 19.4059 28.9255C19.3328 28.9861 19.2466 29.0288 19.1541 29.0502C19.0616 29.0717 18.9654 29.0712 18.873 29.0489Z" fill="white"/>
</svg>
