<svg width="296" height="296" viewBox="0 0 296 296" fill="none" xmlns="http://www.w3.org/2000/svg">
<path d="M295.272 147.646C295.272 222.214 239.998 283.861 168.192 293.865C161.478 294.796 154.609 295.282 147.636 295.282C139.587 295.282 131.684 294.641 123.987 293.4C53.6915 282.082 0 221.128 0 147.646C0 66.1057 66.1057 0 147.646 0C229.187 0 295.293 66.1057 295.293 147.646H295.272Z" fill="#1877F7"/>
<path d="M168.192 118.556V150.719H207.979L201.679 194.045H168.192V293.865C161.478 294.796 154.609 295.283 147.636 295.283C139.587 295.283 131.684 294.641 123.987 293.4V194.045H87.2926V150.719H123.987V111.366C123.987 86.9513 143.777 67.1506 168.202 67.1506V67.1713C168.275 67.1713 168.337 67.1506 168.409 67.1506H207.99V104.621H182.127C174.44 104.621 168.202 110.859 168.202 118.545L168.192 118.556Z" fill="white"/>
</svg>
