<svg width="296" height="296" viewBox="0 0 296 296" fill="none" xmlns="http://www.w3.org/2000/svg">
<path d="M147.977 0H147.305C65.9507 0 0 65.9506 0 147.305V147.977C0 229.332 65.9507 295.282 147.305 295.282H147.977C229.332 295.282 295.282 229.332 295.282 147.977V147.305C295.282 65.9506 229.332 0 147.977 0Z" fill="#383D38"/>
<path d="M193.331 60.0744H101.962C76.7199 60.0744 56.1847 80.6095 56.1847 105.852V189.441C56.1847 214.683 76.7199 235.218 101.962 235.218H193.331C218.573 235.218 239.108 214.683 239.108 189.441V105.852C239.108 80.6095 218.573 60.0744 193.331 60.0744ZM72.3335 105.852C72.3335 89.5167 85.6271 76.2232 101.962 76.2232H193.331C209.666 76.2232 222.959 89.5167 222.959 105.852V189.441C222.959 205.776 209.666 219.069 193.331 219.069H101.962C85.6271 219.069 72.3335 205.776 72.3335 189.441V105.852Z" fill="white"/>
<path d="M147.646 190.217C171.12 190.217 190.227 171.12 190.227 147.636C190.227 124.152 171.13 105.055 147.646 105.055C124.163 105.055 105.066 124.152 105.066 147.636C105.066 171.12 124.163 190.217 147.646 190.217ZM147.646 121.214C162.223 121.214 174.078 133.07 174.078 147.646C174.078 162.223 162.223 174.078 147.646 174.078C133.07 174.078 121.215 162.223 121.215 147.646C121.215 133.07 133.07 121.214 147.646 121.214Z" fill="white"/>
<path d="M194.169 111.935C200.49 111.935 205.642 106.793 205.642 100.462C205.642 94.1307 200.5 88.9891 194.169 88.9891C187.837 88.9891 182.696 94.1307 182.696 100.462C182.696 106.793 187.837 111.935 194.169 111.935Z" fill="white"/>
</svg>
