<?xml version="1.0" encoding="UTF-8" standalone="no"?>
<svg
   width="24"
   height="24"
   viewBox="0 0 24 24"
   fill="none"
   version="1.1"
   id="svg2"
   sodipodi:docname="Like.svg"
   inkscape:version="1.4.2 (ebf0e940d0, 2025-05-08)"
   xmlns:inkscape="http://www.inkscape.org/namespaces/inkscape"
   xmlns:sodipodi="http://sodipodi.sourceforge.net/DTD/sodipodi-0.dtd"
   xmlns:xlink="http://www.w3.org/1999/xlink"
   xmlns="http://www.w3.org/2000/svg"
   xmlns:svg="http://www.w3.org/2000/svg">
  <sodipodi:namedview
     id="namedview2"
     pagecolor="#ffffff"
     bordercolor="#000000"
     borderopacity="0.25"
     inkscape:showpageshadow="2"
     inkscape:pageopacity="0.0"
     inkscape:pagecheckerboard="0"
     inkscape:deskcolor="#d1d1d1"
     inkscape:zoom="32.208333"
     inkscape:cx="12"
     inkscape:cy="12"
     inkscape:window-width="1920"
     inkscape:window-height="1008"
     inkscape:window-x="0"
     inkscape:window-y="0"
     inkscape:window-maximized="1"
     inkscape:current-layer="svg2" />
  <g
     clip-path="url(#clip0_1_19707)"
     id="g2"
     style="stroke:url(#linearGradient2)"
     transform="matrix(1.2926442,0,0,1.3313217,-3.8730968,-3.960336)">
    <path
       d="M 17.3605,20 H 6.00012 c -1.10457,0 -2,-0.8954 -2,-2 V 10 H 7.92975 C 8.59846,10 9.22292,9.6658 9.59385,9.1094 L 12.1095,5.3359 C 12.6659,4.5013 13.6026,4 14.6057,4 h 0.214 c 0.6179,0 1.0879,0.55487 0.9864,1.1644 L 15.0001,10 h 3.5604 c 1.2621,0 2.2087,1.1547 1.9612,2.3922 l -1.2,6 C 19.1347,19.3271 18.3139,20 17.3605,20 Z"
       stroke="#292929"
       stroke-width="2"
       stroke-linecap="round"
       stroke-linejoin="round"
       id="path1"
       style="stroke:url(#linearGradient4)" />
    <path
       d="M 8.00012,10 V 20"
       stroke="#292929"
       stroke-width="2"
       id="path2"
       style="stroke:url(#linearGradient5)" />
  </g>
  <defs
     id="defs2">
    <linearGradient
       id="swatch2"
       inkscape:swatch="solid">
      <stop
         style="stop-color:#ffffff;stop-opacity:1;"
         offset="0"
         id="stop2" />
    </linearGradient>
    <clipPath
       id="clip0_1_19707">
      <rect
         width="24"
         height="24"
         fill="white"
         id="rect2" />
    </clipPath>
    <linearGradient
       inkscape:collect="always"
       xlink:href="#swatch2"
       id="linearGradient2"
       x1="3.00012"
       y1="12"
       x2="21.559847"
       y2="12"
       gradientUnits="userSpaceOnUse" />
    <linearGradient
       inkscape:collect="always"
       xlink:href="#swatch2"
       id="linearGradient4"
       gradientUnits="userSpaceOnUse"
       x1="3.00012"
       y1="12"
       x2="21.559847"
       y2="12" />
    <linearGradient
       inkscape:collect="always"
       xlink:href="#swatch2"
       id="linearGradient5"
       gradientUnits="userSpaceOnUse"
       x1="3.00012"
       y1="12"
       x2="21.559847"
       y2="12" />
  </defs>
</svg>
