<svg width="296" height="296" viewBox="0 0 296 296" fill="none" xmlns="http://www.w3.org/2000/svg">
<path d="M147.977 0H147.305C65.9508 0 0 65.9507 0 147.305V147.977C0 229.332 65.9508 295.282 147.305 295.282H147.977C229.332 295.282 295.283 229.332 295.283 147.977V147.305C295.283 65.9507 229.332 0 147.977 0Z" fill="#007EBB"/>
<path d="M70.4198 98.1551C66.53 94.5446 64.5956 90.0755 64.5956 84.7581C64.5956 79.4406 66.5404 74.775 70.4198 71.1542C74.3096 67.5437 79.3167 65.7333 85.4514 65.7333C91.5861 65.7333 96.3966 67.5437 100.276 71.1542C104.166 74.7647 106.1 79.3062 106.1 84.7581C106.1 90.21 104.156 94.5446 100.276 98.1551C96.3863 101.766 91.4516 103.576 85.4514 103.576C79.4512 103.576 74.3096 101.766 70.4198 98.1551ZM102.831 118.866V229.56H67.8542V118.866H102.831Z" fill="#FEFFFC"/>
<path d="M219.266 129.791C226.891 138.067 230.698 149.426 230.698 163.888V227.594H197.479V168.378C197.479 161.085 195.586 155.416 191.81 151.381C188.034 147.346 182.944 145.319 176.572 145.319C170.199 145.319 165.109 147.336 161.333 151.381C157.557 155.416 155.664 161.085 155.664 168.378V227.594H122.249V118.545H155.664V133.008C159.047 128.187 163.609 124.38 169.341 121.577C175.072 118.773 181.517 117.376 188.686 117.376C201.452 117.376 211.652 121.514 219.266 129.791Z" fill="#FEFFFC"/>
</svg>
