<svg width="22" height="22" viewBox="0 0 22 22" fill="none" xmlns="http://www.w3.org/2000/svg">
<path fill-rule="evenodd" clip-rule="evenodd" d="M14 2C13.5184 2 13.047 2.20492 12.6669 2.54513C12.2554 2.91346 11.6232 2.87844 11.2549 2.46692C10.8865 2.0554 10.9216 1.4232 11.3331 1.05487C12.0145 0.44498 12.9449 0 14 0C16.2092 0 18 1.79086 18 4C18 5.67877 16.9443 7.37341 15.3332 7.94284C14.8125 8.12689 14.2412 7.85396 14.0572 7.33325C13.8731 6.81253 14.146 6.24121 14.6668 6.05716C15.3861 5.80292 16 4.93366 16 4C16 2.89543 15.1046 2 14 2ZM8 6C6.89543 6 6 6.89543 6 8C6 9.10457 6.89543 10 8 10C9.10457 10 10 9.10457 10 8C10 6.89543 9.10457 6 8 6ZM4 8C4 5.79086 5.79086 4 8 4C10.2091 4 12 5.79086 12 8C12 10.2091 10.2091 12 8 12C5.79086 12 4 10.2091 4 8ZM13 11C13 10.4477 13.4477 10 14 10C15.3514 10 17.2284 10.2655 18.8019 10.8813C19.5887 11.1891 20.3618 11.6084 20.9526 12.1792C21.558 12.7641 22 13.5407 22 14.5V15.5C22 16.8546 20.9048 18 19.5183 18H19C18.4477 18 18 17.5523 18 17C18 16.4477 18.4477 16 19 16H19.5183C19.7684 16 20 15.7821 20 15.5V14.5C20 14.2093 19.8795 13.9234 19.563 13.6176C19.2319 13.2978 18.7238 12.9984 18.0731 12.7437C16.7716 12.2345 15.1486 12 14 12C13.4477 12 13 11.5523 13 11ZM3.1981 14.8813C4.77158 14.2655 6.64858 14 8 14C9.35142 14 11.2284 14.2655 12.8019 14.8813C13.5887 15.1891 14.3618 15.6084 14.9526 16.1792C15.558 16.7641 16 17.5407 16 18.5V19.5C16 20.8546 14.9048 22 13.5183 22H2.48169C1.09519 22 0 20.8546 0 19.5V18.5C0 17.5407 0.441988 16.7641 1.04738 16.1792C1.6382 15.6084 2.41129 15.1891 3.1981 14.8813ZM2.437 17.6176C2.12051 17.9234 2 18.2093 2 18.5V19.5C2 19.7821 2.23155 20 2.48169 20H13.5183C13.7684 20 14 19.7821 14 19.5V18.5C14 18.2093 13.8795 17.9234 13.563 17.6176C13.2319 17.2978 12.7238 16.9984 12.0731 16.7437C10.7716 16.2345 9.14858 16 8 16C6.85142 16 5.22842 16.2345 3.9269 16.7437C3.27621 16.9984 2.76805 17.2978 2.437 17.6176Z" fill="white"/>
</svg>
