<?xml version="1.0" encoding="UTF-8" standalone="no"?>
<!-- Uploaded to: SVG Repo, www.svgrepo.com, Transformed by: SVG Repo Mixer Tools -->

<svg
   width="800px"
   height="800px"
   viewBox="0 0 24 24"
   fill="none"
   version="1.1"
   id="svg3"
   sodipodi:docname="play-circle.svg"
   inkscape:version="1.4.2 (ebf0e940d0, 2025-05-08)"
   xmlns:inkscape="http://www.inkscape.org/namespaces/inkscape"
   xmlns:sodipodi="http://sodipodi.sourceforge.net/DTD/sodipodi-0.dtd"
   xmlns:xlink="http://www.w3.org/1999/xlink"
   xmlns="http://www.w3.org/2000/svg"
   xmlns:svg="http://www.w3.org/2000/svg">
  <defs
     id="defs3">
    <linearGradient
       id="swatch3"
       inkscape:swatch="solid">
      <stop
         style="stop-color:#5fbea8;stop-opacity:1;"
         offset="0"
         id="stop3" />
    </linearGradient>
    <linearGradient
       inkscape:collect="always"
       xlink:href="#swatch3"
       id="linearGradient3"
       x1="2"
       y1="12"
       x2="22"
       y2="12"
       gradientUnits="userSpaceOnUse" />
  </defs>
  <sodipodi:namedview
     id="namedview3"
     pagecolor="#ffffff"
     bordercolor="#000000"
     borderopacity="0.25"
     inkscape:showpageshadow="2"
     inkscape:pageopacity="0.0"
     inkscape:pagecheckerboard="0"
     inkscape:deskcolor="#d1d1d1"
     inkscape:zoom="0.96625"
     inkscape:cx="400"
     inkscape:cy="400"
     inkscape:window-width="1920"
     inkscape:window-height="1008"
     inkscape:window-x="0"
     inkscape:window-y="0"
     inkscape:window-maximized="1"
     inkscape:current-layer="svg3" />
  <g
     id="SVGRepo_bgCarrier"
     stroke-width="0" />
  <g
     id="SVGRepo_tracerCarrier"
     stroke-linecap="round"
     stroke-linejoin="round" />
  <g
     id="SVGRepo_iconCarrier"
     transform="matrix(1.1910307,0,0,1.1893058,-2.245796,-2.2095735)"
     style="stroke:url(#linearGradient3)">
    <path
       opacity="0.1"
       fill-rule="evenodd"
       clip-rule="evenodd"
       d="m 12,21 c 4.9706,0 9,-4.0294 9,-9 0,-4.97056 -4.0294,-9 -9,-9 -4.97056,0 -9,4.02944 -9,9 0,4.9706 4.02944,9 9,9 z m 3.224,-7.9829 c 0.787,-0.4497 0.787,-1.5845 0,-2.0342 L 10.7817,8.44446 C 10.0992,8.05446 9.25,8.54727 9.25,9.33333 v 5.33337 c 0,0.786 0.8492,1.2788 1.5317,0.8888 z"
       fill="#323232"
       id="path1"
       style="stroke:url(#linearGradient3)" />
    <path
       d="m 21,12 c 0,4.9706 -4.0294,9 -9,9 -4.97056,0 -9,-4.0294 -9,-9 0,-4.97056 4.02944,-9 9,-9 4.9706,0 9,4.02944 9,9 z"
       stroke="#323232"
       stroke-width="2"
       id="path2"
       style="stroke:url(#linearGradient3)" />
    <path
       d="M 10.9,8.8 10.6577,8.66152 C 10.1418,8.36676 9.5,8.73922 9.5,9.33333 v 5.33337 c 0,0.5941 0.6418,0.9665 1.1577,0.6718 L 10.9,15.2 15.1,12.8 c 0.619,-0.3537 0.619,-1.2463 0,-1.6 z"
       stroke="#323232"
       stroke-width="2"
       stroke-linecap="round"
       stroke-linejoin="round"
       id="path3"
       style="stroke:url(#linearGradient3)" />
  </g>
</svg>
