<?xml version="1.0" encoding="UTF-8" standalone="no"?>
<svg
   width="22"
   height="25"
   viewBox="0 0 22 25"
   fill="none"
   version="1.1"
   id="svg5"
   sodipodi:docname="pointer.svg"
   inkscape:version="1.4.2 (ebf0e940d0, 2025-05-08)"
   xmlns:inkscape="http://www.inkscape.org/namespaces/inkscape"
   xmlns:sodipodi="http://sodipodi.sourceforge.net/DTD/sodipodi-0.dtd"
   xmlns="http://www.w3.org/2000/svg"
   xmlns:svg="http://www.w3.org/2000/svg">
  <sodipodi:namedview
     id="namedview5"
     pagecolor="#ffffff"
     bordercolor="#000000"
     borderopacity="0.25"
     inkscape:showpageshadow="2"
     inkscape:pageopacity="0.0"
     inkscape:pagecheckerboard="0"
     inkscape:deskcolor="#d1d1d1"
     inkscape:zoom="30.92"
     inkscape:cx="11.01229"
     inkscape:cy="10.300776"
     inkscape:window-width="1920"
     inkscape:window-height="1008"
     inkscape:window-x="0"
     inkscape:window-y="0"
     inkscape:window-maximized="1"
     inkscape:current-layer="g3" />
  <g
     filter="url(#filter0_d_32_22)"
     id="g3">
    <mask
       id="path-1-outside-1_32_22"
       maskUnits="userSpaceOnUse"
       x="3"
       y="2"
       width="16"
       height="19"
       fill="black">
      <rect
         fill="white"
         x="3"
         y="2"
         width="16"
         height="19"
         id="rect1" />
      <path
         fill-rule="evenodd"
         clip-rule="evenodd"
         d="M7.83555 13L6.94894 11.6453C6.34355 10.7203 5.05404 10.3829 4.06767 10.89L4.2975 10.7718C4.05272 10.8977 3.93534 11.2114 4.03613 11.4721L5.2634 14.6474C5.45796 15.1508 5.95486 15.8627 6.36661 16.2203C6.36661 16.2203 8.83555 18.2639 8.83555 19.03V20H12.8355L13.8355 18L14.8355 20H15.8355V19.03C15.8355 18.2639 17.3444 15.8507 17.3444 15.8507C17.6221 15.3816 17.8536 14.5552 17.8536 14.0066V9.9718C17.8355 9.0785 17.0762 8.35454 16.1393 8.35454C15.6705 8.35454 15.2909 8.71652 15.2909 9.16341V9.48657C15.2909 8.59327 14.5315 7.86931 13.5946 7.86931C13.1258 7.86931 12.7462 8.23129 12.7462 8.67819V9.00135C12.7462 8.10804 11.9868 7.38408 11.0499 7.38408C10.5812 7.38408 10.2015 7.74606 10.2015 8.19296V8.51612C10.2015 8.37256 10.1862 8.25843 10.1565 8.16799L9.89773 4.00121C9.86274 3.43776 9.38783 3 8.83555 3C8.27941 3 7.83555 3.44763 7.83555 3.99981V8V13ZM14.8536 12H15.8536V16H14.8536V12ZM12.8536 12H13.8536V16H12.8536V12ZM10.8536 12H11.8536V16H10.8536V12Z"
         id="path1" />
    </mask>
    <path
       fill-rule="evenodd"
       clip-rule="evenodd"
       d="M 7.363378,13.2332 6.332071,11.682494 C 5.6278798,10.623659 4.1279183,10.237443 2.9805702,10.817913 l 0.2673389,-0.135302 c -0.2847287,0.144115 -0.4212655,0.503203 -0.3040262,0.801623 l 1.4275636,3.634721 c 0.2263127,0.576234 0.8043082,1.391136 1.2832568,1.800476 0,0 2.8718774,2.33928 2.8718774,3.216223 V 21.246 h 4.6527523 l 1.163202,-2.289372 1.163202,2.289372 h 1.163205 v -1.110346 c 0,-0.876943 1.755156,-3.639299 1.755156,-3.639299 0.323021,-0.536972 0.592302,-1.48294 0.592302,-2.110915 V 9.7668622 C 18.99535,8.7443141 18.112127,7.9156075 17.022322,7.9156075 c -0.545309,0 -0.986861,0.4143533 -0.986861,0.9259021 v 0.3699167 c 0,-1.022548 -0.883335,-1.8512548 -1.973141,-1.8512548 -0.54531,0 -0.986862,0.4143534 -0.986862,0.9259135 v 0.3699171 c 0,-1.0225596 -0.883335,-1.8512664 -1.973139,-1.8512664 -0.545194,0 -0.986862,0.4143534 -0.986862,0.9259135 v 0.3699165 c 0,-0.164331 -0.0178,-0.294974 -0.05234,-0.3984994 L 9.7621113,2.9324125 C 9.7214107,2.2874392 9.1689942,1.7863416 8.5265807,1.7863416 c -0.6469035,0 -1.1632027,0.5123958 -1.1632027,1.1444683 v 4.5789607 z m 8.163415,-1.144687 h 1.163201 v 4.578744 h -1.163201 z m -2.326407,0 h 1.163204 v 4.578744 h -1.163204 z m -2.326404,0 h 1.163203 v 4.578744 h -1.163203 z"
       fill="white"
       id="path2"
       style="fill:#000000;fill-opacity:1;stroke-width:1.1539" />
    <path
       d="M 7.83555,13 6.99882,13.5476 8.83555,16.354 V 13 Z M 6.94894,11.6453 7.78566,11.0977 Z M 4.03613,11.4721 3.10338,11.8327 Z m 1.22727,3.1753 0.93275,-0.3605 z m 1.10321,1.5729 -0.65573,0.755 0.00896,0.0078 0.00915,0.0076 z M 8.83555,20 h -1 v 1 h 1 z m 3.99995,0 v 1 h 0.6181 L 13.73,20.4472 Z m 1,-2 0.8945,-0.4472 -0.8945,-1.7889 -0.8944,1.7889 z m 1,2 -0.8944,0.4472 L 14.2175,21 h 0.618 z m 1,0 v 1 h 1 v -1 z m 1.5089,-4.1493 0.8479,0.5301 0.0064,-0.0102 0.0062,-0.0104 z m 0.5092,-5.8789 h 1 V 9.96168 l -2e-4,-0.01012 z M 10.1565,8.16799 9.15843,8.22998 9.16637,8.35779 9.20626,8.47948 Z M 9.89773,4.00121 8.89965,4.0632 v 0 z M 7.83555,3.99981 h -1 z M 15.8536,12 h 1 v -1 h -1 z m 0,4 v 1 h 1 v -1 z m -1,0 h -1 v 1 h 1 z m -1,-4 h 1 v -1 h -1 z m 0,4 v 1 h 1 v -1 z m -1,0 h -1 v 1 h 1 z m -1,-4 h 1 v -1 h -1 z m 0,4 v 1 h 1 v -1 z m -1,0 H 9.85364 v 1 H 10.8536 Z M 8.67227,12.4524 7.78566,11.0977 6.11221,12.193 6.99882,13.5476 Z M 7.78566,11.0977 C 6.89807,9.74153 5.04892,9.2611 3.61046,10.0006 l 0.91443,1.7787 C 5.05915,11.5047 5.78903,11.6992 6.11221,12.193 Z M 4.52489,11.7793 4.75472,11.6612 3.84029,9.88245 3.61046,10.0006 Z M 3.84029,9.88245 C 3.13107,10.2471 2.82221,11.1052 3.10338,11.8327 l 1.8655,-0.7211 c 0.04558,0.1179 0.03564,0.228 0.00514,0.3097 -0.03042,0.0814 -0.09755,0.1773 -0.2193,0.2399 z m -0.73691,1.95025 1.22727,3.1752 1.8655,-0.721 -1.22727,-3.1753 z m 1.22727,3.1752 c 0.25271,0.6539 0.84402,1.5017 1.38023,1.9674 l 1.31147,-1.51 C 6.73505,15.2158 6.33256,14.6398 6.19615,14.2869 Z m 2.03596,1.2124 c -0.63762,0.7704 -0.63768,0.7703 -0.63773,0.7703 0,0 -4e-5,-10e-5 -5e-5,-10e-5 -2e-5,0 0,0 5e-5,10e-5 1.2e-4,10e-5 3.7e-4,3e-4 7.8e-4,6e-4 8e-4,7e-4 0.00219,0.0018 0.00414,0.0035 0.00389,0.0032 0.01001,0.0083 0.01823,0.0152 0.01643,0.0138 0.04119,0.0346 0.07308,0.0617 0.06383,0.0543 0.15596,0.1334 0.26689,0.2309 0.22288,0.196 0.51689,0.4623 0.80811,0.7485 0.29565,0.2906 0.56755,0.5814 0.7586,0.8285 0.09601,0.1242 0.15432,0.2153 0.18445,0.2729 C 7.8837,19.23 7.83555,19.1741 7.83555,19.03 h 2 c 0,-0.3356 -0.1253,-0.623 -0.21978,-0.8038 C 9.51087,18.0255 9.3763,17.8312 9.24085,17.6561 8.96897,17.3045 8.62364,16.9407 8.30205,16.6247 7.97604,16.3042 7.65282,16.0118 7.41277,15.8007 7.29223,15.6947 7.19147,15.6081 7.12029,15.5476 7.08467,15.5174 7.05639,15.4935 7.03665,15.477 7.02678,15.4687 7.01905,15.4623 7.01359,15.4577 7.01087,15.4555 7.00871,15.4537 7.00714,15.4524 c -7.8e-4,-7e-4 -0.00141,-0.0012 -0.0019,-0.0016 -2.4e-4,-2e-4 -4.5e-4,-4e-4 -6.2e-4,-5e-4 -8e-5,-10e-5 -1.8e-4,-2e-4 -2.2e-4,-2e-4 -9e-5,-1e-4 -1.7e-4,-1e-4 -0.63779,0.7702 z M 7.83555,19.03 V 20 h 2 v -0.97 z m 1,1.97 H 12.8355 V 19 H 8.83555 Z m 4.89445,-0.5528 1,-2 -1.7889,-0.8944 -1,2 z m -0.7889,-2 1,2 1.7889,-0.8944 -1,-2 z M 14.8355,21 h 1 v -2 h -1 z m 2,-1 v -0.97 h -2 V 20 Z m 0,-0.97 c 0,0.0358 0.011,-0.0861 0.1566,-0.43 0.124,-0.2927 0.2961,-0.6351 0.4779,-0.9721 0.1802,-0.3338 0.3615,-0.647 0.4985,-0.8776 0.0682,-0.1149 0.1249,-0.2085 0.1642,-0.2728 0.0197,-0.0322 0.035,-0.0569 0.0451,-0.0734 0.0051,-0.0082 0.0089,-0.0144 0.0114,-0.0183 0.0012,-0.0019 0.0021,-0.0033 0.0026,-0.0042 3e-4,-4e-4 4e-4,-7e-4 5e-4,-8e-4 10e-5,-10e-5 10e-5,-10e-5 10e-5,-10e-5 0,0 0,0 -10e-5,0 0,10e-5 0,10e-5 -0.8479,-0.53 -0.8479,-0.5302 -0.848,-0.5301 -0.848,-0.53 0,0 -10e-5,10e-5 -10e-5,2e-4 -10e-5,10e-5 -2e-4,3e-4 -4e-4,5e-4 -3e-4,5e-4 -6e-4,0.0011 -0.0011,0.0018 -9e-4,0.0015 -0.0022,0.0036 -0.0039,0.0062 -0.0032,0.0053 -0.0079,0.0128 -0.0139,0.0224 -0.0119,0.0193 -0.029,0.0471 -0.0506,0.0824 -0.0432,0.0707 -0.1044,0.1717 -0.1776,0.2949 -0.1459,0.2458 -0.3418,0.5838 -0.5389,0.9491 -0.1954,0.362 -0.4005,0.7666 -0.5594,1.1418 -0.1373,0.3241 -0.315,0.7911 -0.315,1.21 z m 1.3694,-2.6698 c 0.1978,-0.3341 0.3544,-0.7471 0.4619,-1.1344 0.1073,-0.3868 0.1868,-0.8249 0.1868,-1.2192 h -2 c 0,0.1544 -0.0361,0.4037 -0.114,0.6846 -0.0778,0.2802 -0.1757,0.5149 -0.2557,0.65 z m 0.6487,-2.3536 V 9.9718 h -2 v 4.0348 z m -2e-4,-4.05504 C 18.8237,8.48181 17.5879,7.35454 16.1393,7.35454 v 2 c 0.4253,0 0.7081,0.32065 0.7145,0.63751 z M 16.1393,7.35454 c -0.9756,0 -1.8484,0.76527 -1.8484,1.80887 h 2 c 0,0.0683 -0.0307,0.12236 -0.0616,0.15175 -0.0299,0.02857 -0.064,0.03938 -0.09,0.03938 z m -1.8484,1.80887 v 0.32316 h 2 V 9.16341 Z m 2,0.32316 c 0,-1.49 -1.2526,-2.61726 -2.6963,-2.61726 v 2 c 0.4301,0 0.6963,0.32067 0.6963,0.61726 z M 13.5946,6.86931 c -0.9755,0 -1.8484,0.76527 -1.8484,1.80888 h 2 c 0,0.06829 -0.0307,0.12235 -0.0615,0.15174 -0.03,0.02857 -0.0641,0.03938 -0.0901,0.03938 z m -1.8484,1.80888 v 0.32316 h 2 V 8.67819 Z m 2,0.32316 c 0,-1.49001 -1.2526,-2.61727 -2.6963,-2.61727 v 2 c 0.4302,0 0.6963,0.32067 0.6963,0.61727 z M 11.0499,6.38408 c -0.9755,0 -1.8484,0.76528 -1.8484,1.80888 h 2 c 0,0.0683 -0.0307,0.12236 -0.0615,0.15174 -0.03,0.02858 -0.0641,0.03938 -0.0901,0.03938 z M 9.2015,8.19296 v 0.32316 h 2 V 8.19296 Z m 2,0.32316 c 0,-0.20732 -0.0212,-0.43524 -0.0947,-0.65961 L 9.20626,8.47948 C 9.19841,8.45553 9.19759,8.44436 9.19853,8.45156 9.19947,8.45874 9.2015,8.4791 9.2015,8.51612 Z M 11.1546,8.10601 10.8958,3.93923 8.89965,4.0632 9.15843,8.22998 Z M 10.8958,3.93923 C 10.8279,2.84504 9.91249,2 8.83555,2 V 4 C 8.84436,4 8.86024,4.00346 8.8772,4.01933 8.89327,4.03438 8.89882,4.04976 8.89965,4.0632 Z M 8.83555,2 c -1.11075,0 -2,0.89768 -2,1.99981 h 2 V 4 Z m -2,1.99981 V 8 h 2 V 3.99981 Z m 0,4.00019 v 5 h 2 V 8 Z m 8.01805,5 h 1 v -2 h -1 z m 0,-1 v 4 h 2 v -4 z m 1,3 h -1 v 2 h 1 z m 0,1 v -4 h -2 v 4 z m -3,-3 h 1 v -2 h -1 z m 0,-1 v 4 h 2 v -4 z m 1,3 h -1 v 2 h 1 z m 0,1 v -4 h -2 v 4 z m -3,-3 h 1 v -2 h -1 z m 0,-1 v 4 h 2 v -4 z m 1,3 h -1 v 2 h 1 z m 0,1 V 12 H 9.85364 v 4 z"
       fill="black"
       fill-opacity="0.8"
       mask="url(#path-1-outside-1_32_22)"
       id="path3"
       style="fill:#ffffff;fill-opacity:0.8"
       transform="matrix(1.1632026,0,0,1.1446857,-1.7509541,-1.6477157)" />
  </g>
  <defs
     id="defs5">
    <filter
       id="filter0_d_32_22"
       x="0.000152588"
       y="0"
       width="21.8535"
       height="25"
       filterUnits="userSpaceOnUse"
       color-interpolation-filters="sRGB">
      <feFlood
         flood-opacity="0"
         result="BackgroundImageFix"
         id="feFlood3" />
      <feColorMatrix
         in="SourceAlpha"
         type="matrix"
         values="0 0 0 0 0 0 0 0 0 0 0 0 0 0 0 0 0 0 127 0"
         result="hardAlpha"
         id="feColorMatrix3" />
      <feOffset
         dy="1"
         id="feOffset3" />
      <feGaussianBlur
         stdDeviation="1.5"
         id="feGaussianBlur3" />
      <feColorMatrix
         type="matrix"
         values="0 0 0 0 0 0 0 0 0 0 0 0 0 0 0 0 0 0 0.2 0"
         id="feColorMatrix4" />
      <feBlend
         mode="normal"
         in2="BackgroundImageFix"
         result="effect1_dropShadow_32_22"
         id="feBlend4" />
      <feBlend
         mode="normal"
         in="SourceGraphic"
         in2="effect1_dropShadow_32_22"
         result="shape"
         id="feBlend5" />
    </filter>
  </defs>
</svg>
