<svg width="24" height="24" viewBox="0 0 24 24" fill="none" xmlns="http://www.w3.org/2000/svg">
<path d="M9.99998 12.0569C10.1374 12.3532 10.3489 12.6091 10.614 12.7999C11.674 13.5129 13.086 12.9119 13.657 11.8809C14.496 10.3679 13.635 8.51291 12.132 7.80091C10.132 6.85091 7.76098 7.95491 6.89198 9.88691C5.79698 12.3189 7.18198 15.1349 9.60198 16.1329C12.533 17.3409 15.885 15.7149 17.04 12.8779C18.4 9.53491 16.483 5.74391 13.144 4.46791C9.28898 2.99391 4.94398 5.14791 3.50798 8.88991C1.87798 13.1429 4.33098 17.9139 8.58998 19.4659C13.368 21.2059 18.708 18.5249 20.423 13.8759C20.759 12.9735 20.9536 12.0247 21 11.0629" stroke="#354052" stroke-width="2" stroke-linecap="round" stroke-linejoin="round"/>
</svg>
