<svg width="296" height="296" viewBox="0 0 296 296" fill="none" xmlns="http://www.w3.org/2000/svg">
<path d="M147.977 0H147.305C65.9507 0 0 65.9507 0 147.305V147.977C0 229.332 65.9507 295.282 147.305 295.282H147.977C229.332 295.282 295.282 229.332 295.282 147.977V147.305C295.282 65.9507 229.332 0 147.977 0Z" fill="#2188F7"/>
<path d="M233.863 94.1929C229.818 98.2792 224.211 100.814 217.993 100.814C217.197 100.814 216.421 100.772 215.645 100.69C222.132 96.7999 227.139 90.7065 229.632 83.4442C229.632 83.4442 229.642 83.4442 229.642 83.4339C229.994 82.4615 230.284 81.4787 230.511 80.4648C225.38 85.9478 218.366 89.6617 210.493 90.5514C209.283 90.6962 208.052 90.7686 206.821 90.7686C206.428 90.7686 206.045 90.7583 205.672 90.7376C203.014 87.9444 199.838 85.6271 196.32 83.9305C192.4 82.0166 188.013 80.889 183.389 80.7442C183.006 80.7235 182.634 80.7131 182.24 80.7131C178.32 80.7131 174.554 81.4062 171.078 82.6891C170.188 83.0098 169.319 83.3718 168.471 83.7856C157.454 88.9479 149.829 100.152 149.829 113.125C149.829 115.783 150.15 118.38 150.76 120.852C147.388 120.718 144.046 120.397 140.767 119.901C139.712 119.735 138.667 119.549 137.622 119.352C129.263 117.801 121.287 115.132 113.88 111.49C107.248 108.252 101.072 104.248 95.4446 99.5931C90.7168 95.6929 86.3925 91.348 82.5234 86.5892C82.3579 86.3926 82.1923 86.1754 82.0268 85.9788C81.7992 86.3202 81.5923 86.6719 81.4061 87.034C78.706 91.7618 77.1749 97.224 77.1749 103.059C77.1749 103.235 77.1749 103.431 77.1853 103.607C77.2474 107.973 78.1784 112.131 79.8336 115.918C80.5371 117.594 81.3958 119.176 82.3786 120.687C85.2752 125.146 89.2271 128.86 93.9031 131.425C94.1204 131.56 94.3272 131.673 94.5548 131.777C94.2237 131.839 93.872 131.901 93.5306 131.932C92.5685 132.056 91.5857 132.118 90.5926 132.118C85.6166 132.118 80.9923 130.567 77.206 127.918C77.1853 128.197 77.1853 128.477 77.1853 128.766C77.1853 138.025 81.0647 146.374 87.2822 152.26C92.1237 156.874 98.3825 159.988 105.334 160.888C102.831 161.809 100.131 162.295 97.3066 162.295C94.2548 162.295 91.3375 161.716 88.6684 160.65C92.6513 173.592 104.517 183.079 118.669 183.513C110.031 192.493 97.886 198.069 84.458 198.069C76.1094 198.069 68.2573 195.907 61.4502 192.131C77.8059 206.283 99.1274 214.828 122.456 214.828C174.006 214.828 215.79 173.044 215.79 121.494C215.79 118.659 215.666 115.845 215.407 113.073C223.932 109.711 230.697 102.821 233.894 94.1929H233.863Z" fill="white"/>
</svg>
