<svg width="296" height="296" viewBox="0 0 296 296" fill="none" xmlns="http://www.w3.org/2000/svg">
<path d="M147.977 0H147.305C65.9507 0 0 65.9506 0 147.305V147.977C0 229.332 65.9507 295.282 147.305 295.282H147.977C229.332 295.282 295.282 229.332 295.282 147.977V147.305C295.282 65.9506 229.332 0 147.977 0Z" fill="#383D38"/>
<path d="M233.863 94.1927C229.818 98.2791 224.211 100.814 217.993 100.814C217.197 100.814 216.421 100.772 215.645 100.69C222.132 96.7997 227.139 90.7064 229.632 83.4441C229.632 83.4441 229.642 83.4441 229.642 83.4337C229.994 82.4613 230.284 81.4785 230.511 80.4647C225.38 85.9476 218.366 89.6615 210.493 90.5512C209.283 90.696 208.052 90.7685 206.821 90.7685C206.428 90.7685 206.045 90.7582 205.672 90.7375C203.014 87.9443 199.838 85.6269 196.32 83.9303C192.4 82.0164 188.013 80.8888 183.389 80.744C183.006 80.7233 182.634 80.7129 182.24 80.7129C178.32 80.7129 174.554 81.4061 171.078 82.6889C170.188 83.0096 169.319 83.3717 168.471 83.7855C157.454 88.9478 149.829 100.152 149.829 113.124C149.829 115.783 150.15 118.38 150.76 120.852C147.388 120.718 144.046 120.397 140.767 119.9C139.712 119.735 138.667 119.549 137.622 119.352C129.263 117.8 121.287 115.131 113.88 111.49C107.248 108.252 101.072 104.248 95.4446 99.5929C90.7168 95.6927 86.3925 91.3478 82.5234 86.5891C82.3579 86.3925 82.1923 86.1753 82.0268 85.9787C81.7992 86.3201 81.5923 86.6717 81.4061 87.0338C78.706 91.7616 77.1749 97.2239 77.1749 103.059C77.1749 103.234 77.1749 103.431 77.1853 103.607C77.2474 107.972 78.1784 112.131 79.8336 115.918C80.5371 117.594 81.3958 119.176 82.3786 120.687C85.2752 125.145 89.2271 128.859 93.9031 131.425C94.1204 131.559 94.3272 131.673 94.5548 131.777C94.2237 131.839 93.872 131.901 93.5306 131.932C92.5685 132.056 91.5857 132.118 90.5926 132.118C85.6166 132.118 80.9923 130.566 77.206 127.918C77.1853 128.197 77.1853 128.477 77.1853 128.766C77.1853 138.025 81.0647 146.374 87.2822 152.26C92.1237 156.874 98.3825 159.988 105.334 160.888C102.831 161.809 100.131 162.295 97.3066 162.295C94.2548 162.295 91.3375 161.716 88.6684 160.65C92.6513 173.592 104.517 183.078 118.669 183.513C110.031 192.493 97.886 198.069 84.458 198.069C76.1094 198.069 68.2573 195.907 61.4502 192.131C77.8059 206.283 99.1274 214.828 122.456 214.828C174.006 214.828 215.79 173.044 215.79 121.494C215.79 118.659 215.666 115.845 215.407 113.073C223.932 109.71 230.697 102.821 233.894 94.1927H233.863Z" fill="white"/>
</svg>
